HIERARCHY
ROOT Hips
{
	OFFSET 58.058300 -27.200315 97.023994
	CHANNELS 6 Xposition Yposition Zposition Xrotation Yrotation Zrotation
	JOINT spine
	{
		OFFSET 0.000000 -0.458069 7.965683
		CHANNELS 3 Xrotation Yrotation Zrotation
		JOINT spine1
		{
			OFFSET 0.000000 -0.000002 10.243103
			CHANNELS 3 Xrotation Yrotation Zrotation
			JOINT spine2
			{
				OFFSET 0.000000 -0.000002 9.814751
				CHANNELS 3 Xrotation Yrotation Zrotation
				JOINT Neck
				{
					OFFSET 0.000000 -1.201384 25.198608
					CHANNELS 3 Xrotation Yrotation Zrotation
					JOINT Head
					{
						OFFSET 0.000000 0.000000 7.613144
						CHANNELS 3 Xrotation Yrotation Zrotation
						End Site
						{
							OFFSET 0.000000 6.077326 18.428101
						}
					}
				}
				JOINT RightShoulder
				{
					OFFSET -4.132702 0.575449 10.599213
					CHANNELS 3 Xrotation Yrotation Zrotation
					JOINT RightArm
					{
						OFFSET 0.000000 -0.000002 13.901794
						CHANNELS 3 Xrotation Yrotation Zrotation
						JOINT RightArmRoll
						{
							OFFSET 0.000000 0.000000 7.017883
							CHANNELS 3 Xrotation Yrotation Zrotation
							JOINT RightForeArm
							{
								OFFSET 0.000000 -0.000004 20.440598
								CHANNELS 3 Xrotation Yrotation Zrotation
								JOINT RightForeArmRoll
								{
									OFFSET 0.000000 -0.000002 7.875153
									CHANNELS 3 Xrotation Yrotation Zrotation
									JOINT RightHand
									{
										OFFSET 0.000000 -0.000002 15.803696
										CHANNELS 3 Xrotation Yrotation Zrotation
										End Site
										{
											OFFSET 0.000000 0.000000 0.100006
										}
									}
								}
							}
						}
					}
				}
				JOINT LeftShoulder
				{
					OFFSET 4.132702 0.575449 10.599213
					CHANNELS 3 Xrotation Yrotation Zrotation
					JOINT LeftArm
					{
						OFFSET 0.000000 -0.000002 13.901794
						CHANNELS 3 Xrotation Yrotation Zrotation
						JOINT LeftArmRoll
						{
							OFFSET 0.000000 0.000000 7.017883
							CHANNELS 3 Xrotation Yrotation Zrotation
							JOINT LeftForeArm
							{
								OFFSET 0.000000 -0.000004 20.440598
								CHANNELS 3 Xrotation Yrotation Zrotation
								JOINT LeftForeArmRoll
								{
									OFFSET 0.000000 -0.000002 7.875153
									CHANNELS 3 Xrotation Yrotation Zrotation
									JOINT LeftHand
									{
										OFFSET 0.000000 -0.000002 15.803696
										CHANNELS 3 Xrotation Yrotation Zrotation
										End Site
										{
											OFFSET 0.000000 0.000000 0.100006
										}
									}
								}
							}
						}
					}
				}
			}
		}
	}
	JOINT RightUpLeg
	{
		OFFSET -7.060482 1.086100 -1.294701
		CHANNELS 3 Xrotation Yrotation Zrotation
		JOINT RightUpLegRoll
		{
			OFFSET 0.000000 -0.000004 18.530800
			CHANNELS 3 Xrotation Yrotation Zrotation
			JOINT RightLeg
			{
				OFFSET 0.000000 0.000004 -22.947601
				CHANNELS 3 Xrotation Yrotation Zrotation
				JOINT RightLegRoll
				{
					OFFSET 0.000000 -0.000004 23.022598
					CHANNELS 3 Xrotation Yrotation Zrotation
					JOINT RightFoot
					{
						OFFSET 0.000000 -0.000002 19.162514
						CHANNELS 3 Xrotation Yrotation Zrotation
						JOINT RightToeBase
						{
							OFFSET 0.000000 -0.000004 16.018799
							CHANNELS 3 Xrotation Yrotation Zrotation
							End Site
							{
								OFFSET 0.006790 0.894205 7.757828
							}
						}
					}
				}
			}
		}
	}
	JOINT LeftUpLeg
	{
		OFFSET 7.060482 1.086100 -1.294701
		CHANNELS 3 Xrotation Yrotation Zrotation
		JOINT LeftUpLegRoll
		{
			OFFSET 0.000000 -0.000004 18.530899
			CHANNELS 3 Xrotation Yrotation Zrotation
			JOINT LeftLeg
			{
				OFFSET 0.000000 -0.000004 22.947510
				CHANNELS 3 Xrotation Yrotation Zrotation
				JOINT LeftLegRoll
				{
					OFFSET 0.000000 -0.000004 23.235504
					CHANNELS 3 Xrotation Yrotation Zrotation
					JOINT LeftFoot
					{
						OFFSET 0.000000 -0.000002 18.949600
						CHANNELS 3 Xrotation Yrotation Zrotation
						JOINT LeftToeBase
						{
							OFFSET 0.000000 -0.000004 16.018799
							CHANNELS 3 Xrotation Yrotation Zrotation
							End Site
							{
								OFFSET -0.030426 0.894205 7.757828
							}
						}
					}
				}
			}
		}
	}
}
MOTION
Frames: 13
Frame Time: 0.041667
57.806702 -25.601515 97.001984 -4.060652 1.838327 4.317112 -0.557965 0.090185 -0.556925 2.887874 0.180314 -1.117496 4.532820 0.166915 -1.119573 -1.766584 -7.513957 -0.054987 20.124416 2.387339 0.614156 -18.976545 -38.235211 -22.465438 -132.319971 -129.844997 -98.704785 0.000000 0.000001 -0.000002 6.012098 5.756130 -1.033012 0.000000 0.000027 -3.006289 -5.000137 -8.000078 -0.000010 4.656029 61.299793 -5.054639 -47.889923 117.701795 48.737105 0.000000 -0.000023 0.000001 9.430995 12.004193 -0.402189 0.000001 0.000011 2.999999 -5.000223 7.999600 -0.000048 3.630059 -178.280450 2.871534 -179.999991 0.000005 -1.178995 176.285653 -2.230306 -0.385757 -0.000003 -0.000004 0.041337 69.054510 6.938548 2.005787 25.456955 -7.355613 0.000002 1.112155 171.935505 -3.818420 -0.000020 -0.000004 -1.098669 -10.215601 2.325198 0.469256 0.000001 0.000001 -0.212043 71.548445 -6.871511 -2.004520 25.456953 7.355612 -0.000002 
57.821800 -25.611519 97.003799 -4.086391 1.841260 4.274340 -0.555293 0.089141 -0.559941 2.893213 0.178171 -1.123204 4.538159 0.164703 -1.125253 -1.664858 -7.473829 -0.029832 20.115418 2.394321 0.624286 -18.989461 -38.437006 -22.482787 -132.133807 -129.590491 -98.865690 -0.000000 0.000000 0.000002 5.647829 5.534831 -1.019851 0.000000 0.000026 -3.006304 -5.000137 -8.000078 -0.000008 4.650323 61.278251 -5.051240 -47.902142 117.683709 48.703753 0.000002 -0.000024 0.000000 9.356415 11.981513 -0.392851 0.000000 0.000010 3.000000 -5.000224 7.999601 -0.000047 3.651157 -178.276502 2.882991 -179.999991 0.000005 -1.178995 176.281431 -2.238284 -0.385429 -0.000003 -0.000004 0.041326 69.053465 6.938599 2.005663 25.456945 -7.355614 0.000002 1.151399 171.934617 -3.828035 -0.000019 -0.000004 -1.099049 -10.216213 2.326660 0.469410 0.000000 0.000001 -0.212263 71.549838 -6.871517 -2.004334 25.456952 7.355613 -0.000002 
57.812698 -25.603718 97.010086 -4.108898 1.845857 4.231928 -0.553171 0.087823 -0.563004 2.897444 0.175525 -1.128824 4.542389 0.161990 -1.130849 -1.568733 -7.435224 -0.005331 20.111955 2.403419 0.633703 -19.002766 -38.642383 -22.500615 -131.958053 -129.336817 -99.051519 -0.000001 0.000000 0.000000 5.295975 5.294931 -1.005531 0.000000 0.000027 -3.006298 -5.000136 -8.000080 -0.000008 4.638730 61.254899 -5.041316 -47.915727 117.668846 48.674650 0.000001 -0.000023 0.000001 9.279948 11.960842 -0.383667 0.000002 0.000011 3.000001 -5.000224 7.999601 -0.000050 3.668279 -178.273552 2.892428 -179.999991 0.000005 -1.178995 176.276787 -2.245252 -0.386064 -0.000003 -0.000004 0.041315 69.052427 6.938649 2.005636 25.456953 -7.355613 0.000003 1.186541 171.932705 -3.838327 -0.000020 -0.000004 -1.099450 -10.216628 2.328537 0.469588 0.000000 0.000001 -0.212483 71.550152 -6.871510 -2.004214 25.456953 7.355613 -0.000002 
57.788601 -25.624018 97.007591 -4.128828 1.851635 4.189539 -0.551478 0.086324 -0.566169 2.900823 0.172545 -1.134443 4.545768 0.158943 -1.136427 -1.477275 -7.396609 0.018957 20.113005 2.413255 0.642924 -19.015824 -38.850932 -22.518000 -131.790221 -129.083322 -99.266950 0.000000 -0.000000 0.000001 4.949018 5.029906 -0.989217 -0.000000 0.000027 -3.006311 -5.000139 -8.000078 -0.000010 4.620583 61.230774 -5.023974 -47.935651 117.655568 48.654812 0.000002 -0.000023 -0.000000 9.200891 11.942003 -0.374567 0.000002 0.000011 2.999999 -5.000219 7.999601 -0.000047 3.682155 -178.273565 2.900467 -179.999991 0.000005 -1.180006 176.271323 -2.253226 -0.385801 -0.000003 -0.000004 0.041304 69.051266 6.938658 2.005612 25.456952 -7.355613 0.000002 1.219046 171.928798 -3.849273 -0.000020 -0.000004 -1.099871 -10.216043 2.330923 0.469767 -0.000000 0.000001 -0.212709 71.549285 -6.871461 -2.004160 25.456950 7.355613 -0.000002 
57.792599 -25.621616 97.002388 -4.146525 1.858466 4.147190 -0.550150 0.084657 -0.569417 2.903463 0.169249 -1.140034 4.548407 0.155581 -1.141977 -1.390070 -7.358188 0.043046 20.118182 2.424156 0.651889 -19.028859 -39.062436 -22.535113 -131.631283 -128.830209 -99.508459 0.000001 -0.000002 -0.000003 4.608442 4.743837 -0.971928 0.000000 0.000027 -3.006311 -5.000136 -8.000077 -0.000008 4.596720 61.205646 -5.000185 -47.956903 117.645514 48.638388 0.000002 -0.000024 0.000001 9.119704 11.924787 -0.365529 0.000002 0.000010 2.999999 -5.000221 7.999601 -0.000049 3.693180 -178.274576 2.907295 -179.999991 0.000005 -1.180006 176.265258 -2.261198 -0.385564 -0.000003 -0.000004 0.041293 69.050009 6.938698 2.005597 25.456952 -7.355614 0.000002 1.249122 171.922897 -3.860803 -0.000020 -0.000004 -1.100290 -10.214662 2.333738 0.469945 -0.000000 0.000001 -0.212933 71.547365 -6.871471 -2.004079 25.456955 7.355610 -0.000002 
57.808300 -25.607220 97.002083 -4.162290 1.866228 4.104889 -0.549129 0.082833 -0.572729 2.905492 0.165653 -1.145587 4.550436 0.151918 -1.147490 -1.306702 -7.320197 0.066950 20.126781 2.436438 0.660550 -19.041669 -39.276631 -22.551755 -131.481715 -128.577328 -99.772118 0.000001 -0.000001 0.000001 4.275741 4.440876 -0.954542 -0.000001 0.000028 -3.006314 -5.000136 -8.000078 -0.000012 4.567962 61.179473 -4.970911 -47.981573 117.637017 48.627532 0.000000 -0.000024 -0.000000 9.036834 11.908875 -0.356565 0.000001 0.000012 3.000001 -5.000221 7.999600 -0.000047 3.701740 -178.276612 2.912992 -179.999991 0.000005 -1.180006 176.258728 -2.269156 -0.385345 -0.000003 -0.000004 0.041282 69.048766 6.938736 2.005483 25.456950 -7.355613 0.000002 1.276978 171.916982 -3.872820 -0.000020 -0.000004 -1.100730 -10.212786 2.336901 0.470127 0.000000 0.000001 -0.213163 71.544579 -6.871459 -2.003951 25.456955 7.355614 -0.000001 
57.799000 -25.623520 97.010086 -4.176441 1.874802 4.062647 -0.548358 0.080862 -0.576085 2.907022 0.161774 -1.151125 4.551965 0.147974 -1.152981 -1.226758 -7.282849 0.090683 20.138210 2.450460 0.668833 -19.054377 -39.493400 -22.568362 -131.341956 -128.324911 -100.053945 -0.000001 0.000002 0.000002 3.952367 4.125151 -0.937813 0.000000 0.000028 -3.006316 -5.000137 -8.000079 -0.000008 4.535192 61.152227 -4.937170 -48.009154 117.629859 48.621473 0.000002 -0.000023 0.000000 8.952750 11.894062 -0.347667 0.000002 0.000011 3.000001 -5.000224 7.999602 -0.000049 3.708237 -178.279603 2.917615 -179.999991 0.000005 -1.180006 176.251857 -2.277126 -0.385143 -0.000003 -0.000004 0.041271 69.047393 6.938769 2.005475 25.456955 -7.355614 0.000002 1.302847 171.910069 -3.885245 -0.000020 -0.000005 -1.101179 -10.210807 2.340341 0.470320 -0.000000 0.000001 -0.213393 71.541252 -6.871429 -2.003849 25.456953 7.355615 -0.000002 
57.792198 -25.615921 97.006088 -4.189287 1.884066 4.020478 -0.547775 0.078757 -0.579465 2.908171 0.157630 -1.156618 4.553115 0.143764 -1.158419 -1.149825 -7.246347 0.114256 20.151980 2.466526 0.676687 -19.067334 -39.712602 -22.584937 -131.212374 -128.073041 -100.349959 -0.000000 -0.000001 0.000000 3.639767 3.800825 -0.922329 -0.000000 0.000028 -3.006328 -5.000137 -8.000078 -0.000010 4.499231 61.123875 -4.899923 -48.035914 117.624955 48.615791 0.000001 -0.000024 0.000001 8.867899 11.879834 -0.338796 0.000001 0.000012 3.000000 -5.000221 7.999600 -0.000050 3.713039 -178.283606 2.921229 -179.999991 0.000005 -1.180006 176.244849 -2.285082 -0.385944 -0.000003 -0.000004 0.041259 69.046143 6.938808 2.005362 25.456955 -7.355614 0.000001 1.326931 171.902146 -3.898038 -0.000020 -0.000004 -1.101631 -10.208934 2.343985 0.470524 0.000001 0.000001 -0.213618 71.537407 -6.871441 -2.003687 25.456953 7.355612 -0.000002 
57.797401 -25.608414 97.004189 -4.201157 1.893912 3.978383 -0.547316 0.076527 -0.582850 2.909070 0.153235 -1.162067 4.554005 0.139305 -1.163815 -1.075497 -7.210932 0.137684 20.167489 2.484985 0.684057 -19.080318 -39.933866 -22.601622 -131.092859 -127.822155 -100.655781 0.000001 -0.000001 0.000001 3.339358 3.472069 -0.908568 -0.000001 0.000027 -3.006329 -5.000136 -8.000079 -0.000009 4.460961 61.094403 -4.860182 -48.062798 117.621431 48.611341 0.000001 -0.000023 0.000000 8.782742 11.865974 -0.329969 0.000001 0.000011 3.000001 -5.000224 7.999601 -0.000050 3.716555 -178.288605 2.923890 -179.999991 0.000006 -1.180006 176.237855 -2.292057 -0.385672 -0.000003 -0.000004 0.041248 69.044887 6.938849 2.005347 25.456953 -7.355615 0.000002 1.349468 171.893213 -3.911103 -0.000020 -0.000004 -1.102080 -10.207660 2.347755 0.470755 0.000001 0.000001 -0.213846 71.533322 -6.871390 -2.003632 25.456953 7.355613 -0.000003 
57.803101 -25.611717 97.005493 -4.212351 1.904216 3.936393 -0.546929 0.074185 -0.586219 2.909820 0.148608 -1.167464 4.554764 0.134613 -1.169164 -1.003361 -7.176800 0.160981 20.184150 2.506153 0.690885 -19.093596 -40.157148 -22.618489 -130.983166 -127.572211 -100.966698 0.000001 -0.000001 -0.000000 3.052548 3.143075 -0.896856 -0.000001 0.000027 -3.006336 -5.000136 -8.000080 -0.000012 4.421198 61.063653 -4.818902 -48.088876 117.618849 48.606911 0.000002 -0.000023 0.000000 8.697725 11.852278 -0.321173 0.000002 0.000012 3.000000 -5.000221 7.999600 -0.000050 3.719172 -178.294602 2.925680 -179.999991 0.000006 -1.180006 176.231038 -2.299019 -0.385407 -0.000003 -0.000004 0.041237 69.043739 6.938894 2.005327 25.456950 -7.355615 0.000002 1.370672 171.883295 -3.924388 -0.000020 -0.000004 -1.102530 -10.207188 2.351578 0.471014 0.000000 0.000001 -0.214070 71.529149 -6.871410 -2.003492 25.456950 7.355615 -0.000002 
57.793098 -25.611418 97.009583 -4.223191 1.914861 3.894511 -0.546548 0.071741 -0.589553 2.910559 0.143765 -1.172820 4.555491 0.129706 -1.174454 -0.932999 -7.144173 0.184159 20.201355 2.530368 0.697123 -19.107104 -40.382175 -22.635537 -130.882639 -127.323728 -101.277963 0.000001 -0.000001 0.000003 2.780738 2.818023 -0.887418 0.000000 0.000028 -3.006339 -5.000138 -8.000078 -0.000005 4.380798 61.031620 -4.777074 -48.113857 117.617087 48.601850 0.000002 -0.000023 -0.000000 8.613312 11.838336 -0.312406 0.000001 0.000011 3.000000 -5.000223 7.999602 -0.000048 3.721275 -178.300599 2.926714 -179.999991 0.000005 -1.180006 176.224536 -2.304998 -0.385066 -0.000003 -0.000004 0.041226 69.042694 6.938944 2.005202 25.456957 -7.355615 0.000003 1.390740 171.873364 -3.937783 -0.000020 -0.000004 -1.102980 -10.207816 2.355372 0.471302 0.000000 0.000001 -0.214289 71.525085 -6.871391 -2.003440 25.456955 7.355615 -0.000002 
57.795296 -25.607616 97.008492 -4.233995 1.925744 3.852739 -0.546123 0.069207 -0.592833 2.911398 0.138722 -1.178105 4.556331 0.124600 -1.179680 -0.864003 -7.113269 0.207231 20.218526 2.557958 0.702704 -19.120903 -40.608733 -22.652971 -130.790555 -127.076940 -101.584454 -0.000000 0.000003 0.000002 2.525318 2.501104 -0.880360 -0.000000 0.000028 -3.006347 -5.000136 -8.000078 -0.000007 4.340592 60.998268 -4.735662 -48.135212 117.616322 48.593251 0.000000 -0.000022 -0.000001 8.529948 11.823734 -0.303642 -0.000001 0.000011 3.000001 -5.000224 7.999601 -0.000049 3.723249 -178.307580 2.926998 -179.999991 0.000005 -1.181003 176.218512 -2.310967 -0.385703 -0.000003 -0.000004 0.041215 69.041765 6.939000 2.005172 25.456953 -7.355615 0.000001 1.409903 171.863433 -3.951235 -0.000020 -0.000004 -1.103410 -10.209846 2.359057 0.471625 -0.000000 0.000001 -0.214503 71.521336 -6.871399 -2.003272 25.456953 7.355610 -0.000003 
57.788700 -25.623219 97.012596 -4.245082 1.936746 3.811110 -0.545581 0.066595 -0.596035 2.912458 0.133496 -1.183332 4.557391 0.119312 -1.184840 -0.795957 -7.084303 0.230208 20.235163 2.589237 0.707575 -19.135127 -40.836718 -22.670923 -130.706038 -126.832296 -101.881274 -0.000000 0.000001 0.000001 2.287673 2.196531 -0.875708 0.000000 0.000027 -3.006353 -5.000137 -8.000078 -0.000010 4.301405 60.963564 -4.695631 -48.153909 117.615653 48.581930 0.000001 -0.000023 0.000000 8.448120 11.808460 -0.294930 0.000001 0.000012 3.000001 -5.000224 7.999603 -0.000048 3.725486 -178.314560 2.926668 -179.999991 0.000005 -1.181003 176.213157 -2.314945 -0.385186 -0.000003 -0.000004 0.041204 69.041137 6.939001 2.005211 25.456957 -7.355614 0.000002 1.428390 171.852505 -3.964684 -0.000020 -0.000004 -1.103839 -10.213775 2.362562 0.471993 -0.000001 0.000001 -0.214712 71.518118 -6.871362 -2.003265 25.456953 7.355611 -0.000002 
